<svg width="250" height="250" viewBox="0 0 250 250" fill="none" xmlns="http://www.w3.org/2000/svg">
<path d="M99.2832 119.76C104.146 132.682 99.7081 146.312 89.3702 150.202C79.0323 154.093 66.3324 152.461 60.9105 134.201C56.9155 120.746 63.2935 106.592 73.6313 102.702C83.9692 98.8115 94.4202 106.838 99.2832 119.76Z" fill="#C8102E"/>
<path d="M150.406 119.76C145.543 132.682 149.981 146.312 160.319 150.202C170.657 154.093 183.357 152.461 188.779 134.201C192.774 120.746 186.396 106.592 176.058 102.702C165.72 98.8115 155.269 106.838 150.406 119.76Z" fill="#C8102E"/>
<path d="M125.259 9C174.904 9 217.355 46.017 234.566 90.6137C237.759 98.8897 232.017 107.455 223.211 108.527C217.124 109.268 211.368 105.393 209.124 99.6866C204.432 87.7547 197.376 76.298 188.36 66.373C171.153 47.4324 148.649 36 125.259 36C101.869 36 79.3651 47.4324 62.1584 66.373C53.142 76.2981 46.0856 87.7547 41.3931 99.6866C39.149 105.393 33.3931 109.268 27.3063 108.527C18.5004 107.456 12.7576 98.8908 15.9513 90.6147C33.1612 46.0175 75.6138 9 125.259 9Z" fill="#C8102E"/>
<path d="M227.708 126C235.5 126 241.652 132.06 241.582 139.853C241.57 141.154 241.561 141.998 241.561 142C242.779 195.935 190.29 241.054 126.305 241.983L124.792 241.997C60.1233 241.764 6.79479 196.36 8.02209 142C8.02206 141.998 8.01338 141.154 8.00158 139.853C7.931 132.06 14.0831 126 21.8756 126C28.9868 126 35.0009 132.117 35.0817 139.228C35.0931 140.234 35.1012 141.037 35.1012 141.5C35.1012 177.883 73.0283 214.761 124.792 214.997L126.003 214.984C177.145 214.184 214.482 177.599 214.482 141.5C214.482 141.037 214.49 140.234 214.502 139.228C214.582 132.117 220.596 126 227.708 126Z" fill="#C8102E"/>
</svg>
