<svg width="912" height="250" viewBox="0 0 912 250" fill="none" xmlns="http://www.w3.org/2000/svg">
<path d="M99.2833 119.76C104.146 132.682 99.7081 146.312 89.3702 150.202C79.0323 154.093 66.3324 152.461 60.9105 134.201C56.9155 120.746 63.2935 106.592 73.6313 102.702C83.9692 98.8114 94.4202 106.838 99.2833 119.76Z" fill="#c8102e"/>
<path d="M150.406 119.76C145.543 132.682 149.981 146.312 160.319 150.202C170.657 154.093 183.357 152.461 188.779 134.201C192.774 120.746 186.396 106.592 176.058 102.702C165.72 98.8114 155.269 106.838 150.406 119.76Z" fill="#c8102e"/>
<path d="M125.259 9C174.904 9 217.355 46.017 234.566 90.6137C237.759 98.8897 232.017 107.455 223.211 108.527C217.124 109.268 211.368 105.393 209.124 99.6866C204.432 87.7547 197.376 76.298 188.36 66.373C171.153 47.4324 148.649 36 125.259 36C101.869 36 79.3651 47.4324 62.1584 66.373C53.142 76.2981 46.0856 87.7547 41.3931 99.6866C39.149 105.393 33.3931 109.268 27.3063 108.527C18.5004 107.456 12.7576 98.8908 15.9513 90.6147C33.1612 46.0175 75.6138 9 125.259 9Z" fill="#c8102e"/>
<path d="M227.708 126C235.5 126 241.652 132.06 241.582 139.853C241.57 141.154 241.561 141.998 241.561 142C242.779 195.935 190.29 241.054 126.305 241.983L124.792 241.997C60.1233 241.764 6.79479 196.36 8.02209 142C8.02206 141.998 8.01338 141.154 8.00158 139.853C7.931 132.06 14.0831 126 21.8756 126C28.9868 126 35.0009 132.117 35.0817 139.228C35.0931 140.234 35.1012 141.037 35.1012 141.5C35.1012 177.883 73.0283 214.761 124.792 214.997L126.003 214.984C177.145 214.184 214.482 177.599 214.482 141.5C214.482 141.037 214.49 140.234 214.502 139.228C214.582 132.117 220.596 126 227.708 126Z" fill="#c8102e"/>
<path d="M905.484 142.544C905.484 144.35 904.839 145.867 903.549 147.092C902.323 148.383 900.807 149.028 899.001 149.028H860.291C859.065 149.092 858.033 149.383 857.194 149.899C856.42 150.35 855.839 150.899 855.452 151.544C855.065 152.125 854.872 152.737 854.872 153.383C854.872 154.028 855.065 154.673 855.452 155.318C855.839 155.899 856.42 156.447 857.194 156.963C858.033 157.415 859.065 157.673 860.291 157.737H887.775C892.291 157.867 896.001 158.931 898.904 160.931C901.872 162.867 903.968 165.125 905.194 167.705C906.484 170.221 907.13 172.802 907.13 175.447C907.13 178.028 906.484 180.608 905.194 183.189C903.904 185.705 901.807 187.963 898.904 189.963C896.001 191.899 892.291 192.867 887.775 192.867H887.194C886.807 192.931 886.42 192.963 886.033 192.963H849.452C847.646 192.963 846.097 192.35 844.807 191.125C843.581 189.834 842.968 188.286 842.968 186.479C842.968 184.673 843.614 183.157 844.904 181.931C846.13 180.641 847.646 179.996 849.452 179.996H888.355C889.581 180.06 890.581 179.834 891.355 179.318C892.194 178.802 892.807 178.221 893.194 177.576C893.581 176.867 893.775 176.157 893.775 175.447C893.775 174.996 893.581 174.383 893.194 173.608C892.807 172.77 892.194 172.092 891.355 171.576C890.581 171.06 889.581 170.77 888.355 170.705H860.872C856.355 170.576 852.614 169.544 849.646 167.608C846.743 165.673 844.646 163.479 843.355 161.028C842.13 158.512 841.517 155.963 841.517 153.383C841.517 150.867 842.162 148.383 843.452 145.931C844.743 143.415 846.839 141.189 849.743 139.254C852.646 137.318 856.355 136.286 860.872 136.157H861.452C861.839 136.092 862.226 136.06 862.614 136.06H899.001C900.807 136.06 902.323 136.705 903.549 137.996C904.839 139.221 905.484 140.737 905.484 142.544Z" fill="#c8102e"/>
<path d="M795.355 149.028C792.904 149.157 790.839 150.092 789.162 151.834C787.549 153.576 786.388 155.576 785.678 157.834C784.968 160.028 784.613 162.286 784.613 164.608C784.613 166.931 784.936 169.221 785.581 171.479C786.291 173.737 787.484 175.737 789.162 177.479C790.839 179.157 792.904 180.06 795.355 180.189H827.291C831.355 180.576 833.581 182.802 833.968 186.867C833.904 188.673 833.226 190.189 831.936 191.415C830.646 192.576 829.097 193.157 827.291 193.157H796.42H791.968C787.452 192.899 783.742 191.189 780.839 188.028C777.936 184.802 775.839 181.157 774.549 177.092C773.323 173.028 772.71 168.867 772.71 164.608C772.71 161.447 773.065 158.318 773.775 155.221C774.484 152.125 775.581 149.189 777.065 146.415C778.613 143.576 780.646 141.157 783.162 139.157C785.742 137.157 788.678 136.125 791.968 136.06H793.807H827.291C831.355 136.447 833.581 138.673 833.968 142.737C833.968 144.544 833.291 146.06 831.936 147.286C830.646 148.447 829.097 149.028 827.291 149.028H795.355Z" fill="#c8102e"/>
<path d="M700.226 186.673C700.226 184.867 700.839 183.35 702.065 182.125C703.355 180.834 704.904 180.189 706.71 180.189H725.291V149.028H706.71C704.904 149.028 703.388 148.383 702.162 147.092C700.871 145.867 700.226 144.35 700.226 142.544C700.226 140.737 700.839 139.221 702.065 137.996C703.355 136.705 704.904 136.06 706.71 136.06H756.839C758.646 136.06 760.194 136.673 761.484 137.899C762.71 139.189 763.323 140.737 763.323 142.544C763.323 144.35 762.678 145.899 761.388 147.189C760.162 148.415 758.646 149.028 756.839 149.028H738.355V180.189H756.839C758.646 180.189 760.194 180.802 761.484 182.028C762.71 183.318 763.323 184.867 763.323 186.673C763.323 188.479 762.678 190.028 761.388 191.318C760.162 192.544 758.646 193.157 756.839 193.157H706.71C704.904 193.157 703.388 192.512 702.162 191.221C700.871 189.996 700.226 188.479 700.226 186.673Z" fill="#c8102e"/>
<path d="M622.807 142.544C622.807 140.737 623.42 139.221 624.646 137.996C625.936 136.705 627.484 136.06 629.291 136.06H685.613C687.42 136.06 688.968 136.673 690.259 137.899C691.484 139.189 692.097 140.737 692.097 142.544C692.097 144.35 691.452 145.899 690.162 147.189C688.936 148.415 687.42 149.028 685.613 149.028H664.033V188.221C663.646 192.092 661.517 194.189 657.646 194.512C655.839 194.512 654.259 193.931 652.904 192.77C651.613 191.544 650.968 190.028 650.968 188.221V149.028H629.291C627.484 149.028 625.968 148.383 624.743 147.092C623.452 145.867 622.807 144.35 622.807 142.544Z" fill="#c8102e"/>
<path d="M594.355 136.06C597.646 136.125 600.581 137.157 603.162 139.157C605.743 141.157 607.807 143.544 609.355 146.318C610.968 149.092 612.162 152.028 612.936 155.125C613.71 158.221 614.097 161.383 614.097 164.608C614.097 168.867 613.42 173.06 612.065 177.189C610.775 181.254 608.613 184.867 605.581 188.028C602.613 191.189 598.872 192.899 594.355 193.157H560.581C556.065 192.963 552.291 191.286 549.259 188.125C546.226 184.963 544.065 181.318 542.775 177.189C541.549 173.06 540.936 168.867 540.936 164.608C540.936 160.35 541.581 156.189 542.872 152.125C544.162 147.996 546.291 144.35 549.259 141.189C552.291 137.963 556.065 136.254 560.581 136.06H562.42H592.517H594.355ZM591.065 180.189C593.517 180.06 595.549 179.157 597.162 177.479C598.839 175.737 600.033 173.737 600.743 171.479C601.452 169.221 601.807 166.931 601.807 164.608C601.807 162.286 601.42 160.028 600.646 157.834C599.936 155.576 598.775 153.576 597.162 151.834C595.549 150.092 593.517 149.157 591.065 149.028H563.581C561.13 149.157 559.097 150.092 557.484 151.834C555.872 153.576 554.678 155.576 553.904 157.834C553.194 160.028 552.839 162.286 552.839 164.608C552.839 166.931 553.194 169.221 553.904 171.479C554.613 173.737 555.775 175.737 557.388 177.479C559.065 179.157 561.13 180.06 563.581 180.189H591.065Z" fill="#c8102e"/>
<path d="M530.581 167.608C531.807 170.189 532.42 172.802 532.42 175.447C532.42 178.028 531.775 180.608 530.485 183.189C529.194 185.705 527.097 187.963 524.194 189.963C521.291 191.899 517.581 192.867 513.065 192.867H512.485C512.097 192.931 511.71 192.963 511.323 192.963H472.42C470.678 192.899 469.194 192.286 467.968 191.125C466.807 189.899 466.194 188.415 466.13 186.673V142.35C466.194 140.608 466.807 139.157 467.968 137.996C469.194 136.77 470.678 136.125 472.42 136.06H505.71C506.097 136.06 506.485 136.092 506.872 136.157H507.452C511.968 136.286 515.678 137.318 518.581 139.254C521.485 141.189 523.581 143.415 524.872 145.931C526.162 148.383 526.807 150.867 526.807 153.383C526.807 155.963 526.194 158.479 524.968 160.931C524.904 161.06 524.839 161.157 524.775 161.221C527.42 163.092 529.356 165.221 530.581 167.608ZM513.646 179.996C514.872 180.06 515.872 179.834 516.646 179.318C517.485 178.802 518.097 178.221 518.485 177.576C518.872 176.867 519.065 176.157 519.065 175.447C519.065 174.996 518.872 174.383 518.485 173.608C518.097 172.77 517.485 172.092 516.646 171.576C515.872 171.06 514.872 170.77 513.646 170.705H507.452H479.194V177.383C479.194 179.125 480.097 179.996 481.904 179.996H482.678H513.646ZM511.13 156.867C511.904 156.415 512.485 155.899 512.872 155.318C513.259 154.673 513.452 154.028 513.452 153.383C513.452 152.737 513.259 152.125 512.872 151.544C512.485 150.899 511.872 150.35 511.033 149.899C510.259 149.383 509.259 149.092 508.033 149.028H481.904C480.097 149.028 479.194 149.899 479.194 151.641V157.737H508.033C509.259 157.673 510.291 157.383 511.13 156.867Z" fill="#c8102e"/>
<path d="M435.742 136.06C439.033 136.125 441.968 137.157 444.549 139.157C447.13 141.157 449.194 143.544 450.742 146.318C452.355 149.092 453.549 152.028 454.323 155.125C455.097 158.221 455.484 161.383 455.484 164.608C455.484 168.867 454.807 173.06 453.452 177.189C452.162 181.254 450.001 184.867 446.968 188.028C444.001 191.189 440.259 192.899 435.742 193.157H401.968C397.452 192.963 393.678 191.286 390.646 188.125C387.613 184.963 385.452 181.318 384.162 177.189C382.936 173.06 382.323 168.867 382.323 164.608C382.323 160.35 382.968 156.189 384.259 152.125C385.549 147.996 387.678 144.35 390.646 141.189C393.678 137.963 397.452 136.254 401.968 136.06H403.807H433.904H435.742ZM432.452 180.189C434.904 180.06 436.936 179.157 438.549 177.479C440.226 175.737 441.42 173.737 442.13 171.479C442.839 169.221 443.194 166.931 443.194 164.608C443.194 162.286 442.807 160.028 442.033 157.834C441.323 155.576 440.162 153.576 438.549 151.834C436.936 150.092 434.904 149.157 432.452 149.028H404.968C402.517 149.157 400.484 150.092 398.872 151.834C397.259 153.576 396.065 155.576 395.291 157.834C394.581 160.028 394.226 162.286 394.226 164.608C394.226 166.931 394.581 169.221 395.291 171.479C396.001 173.737 397.162 175.737 398.775 177.479C400.452 179.157 402.517 180.06 404.968 180.189H432.452Z" fill="#c8102e"/>
<path d="M318.065 188.221C317.678 192.092 315.549 194.189 311.678 194.512C309.872 194.512 308.291 193.931 306.936 192.77C305.646 191.544 305.001 190.028 305.001 188.221V142.35C305.065 140.544 305.743 139.06 307.033 137.899C308.323 136.673 309.872 136.06 311.678 136.06H316.42H328.323H352.226C352.614 136.06 353.001 136.092 353.388 136.157H353.968C358.484 136.286 362.194 137.318 365.097 139.254C368.001 141.189 370.097 143.415 371.388 145.931C372.678 148.383 373.323 150.867 373.323 153.383C373.323 155.963 372.678 158.512 371.388 161.028C370.162 163.479 368.065 165.673 365.097 167.608C362.194 169.544 358.484 170.576 353.968 170.705H336.936C337.452 173.931 338.517 176.318 340.13 177.867C341.678 179.415 343.646 180.189 346.033 180.189H366.936C368.743 180.254 370.226 180.931 371.388 182.221C372.614 183.512 373.226 185.06 373.226 186.867C373.162 188.608 372.517 190.092 371.291 191.318C370.13 192.479 368.678 193.092 366.936 193.157H344.291C339.517 193.221 335.194 191.35 331.323 187.544C327.452 183.737 325.097 179.221 324.259 173.996C323.097 168.189 322.517 164.931 322.517 164.221C322.517 162.415 323.13 160.899 324.355 159.673C325.646 158.383 327.194 157.737 329.001 157.737H354.549C355.775 157.673 356.775 157.415 357.549 156.963C358.388 156.447 359.001 155.899 359.388 155.318C359.775 154.673 359.968 154.028 359.968 153.383C359.968 152.737 359.775 152.125 359.388 151.544C359.001 150.899 358.388 150.35 357.549 149.899C356.775 149.383 355.775 149.092 354.549 149.028H328.323H320.581C318.904 149.092 318.065 149.931 318.065 151.544V188.221Z" fill="#c8102e"/>
<path d="M562.111 56.5483H566.562H599.466C601.272 56.6129 602.756 57.2903 603.917 58.5806C605.143 59.8709 605.756 61.4193 605.756 63.2258C605.433 67.0967 603.337 69.1935 599.466 69.5161H565.401C562.949 69.6451 560.917 70.5806 559.304 72.3225C557.691 74.0645 556.498 76.0645 555.724 78.3225C555.014 80.5161 554.659 82.7741 554.659 85.0967C554.659 87.4193 555.014 89.7096 555.724 91.9677C556.498 94.1612 557.691 96.129 559.304 97.8709C560.917 99.6129 562.949 100.548 565.401 100.677H599.466C601.272 100.742 602.756 101.419 603.917 102.71C605.143 104 605.756 105.548 605.756 107.355C605.691 109.097 605.046 110.581 603.82 111.806C602.659 112.968 601.208 113.581 599.466 113.645H563.949H562.111C557.595 113.387 553.853 111.677 550.885 108.516C547.982 105.29 545.885 101.645 544.595 97.5806C543.369 93.5161 542.756 89.3548 542.756 85.0967C542.756 80.8387 543.401 76.6774 544.691 72.6129C545.982 68.5483 548.078 64.9354 550.982 61.7741C553.885 58.5483 557.595 56.8064 562.111 56.5483ZM605.562 84.7096C605.562 86.5161 604.917 88.0322 603.627 89.258C602.401 90.5483 600.885 91.1935 599.078 91.1935H569.853C568.046 91.1935 566.498 90.5806 565.208 89.3548C563.982 88.0645 563.369 86.5161 563.369 84.7096C563.369 82.9032 563.982 81.3548 565.208 80.0645C566.498 78.8387 568.046 78.2258 569.853 78.2258H599.078C600.885 78.2258 602.401 78.8709 603.627 80.1612C604.917 81.387 605.562 82.9032 605.562 84.7096Z" fill="#c8102e"/>
<path d="M473.949 55C475.691 55.0645 477.175 55.7097 478.401 56.9355C479.627 58.0968 480.272 59.5484 480.337 61.2903V108.71C479.949 112.581 477.82 114.677 473.949 115C472.143 115 470.562 114.419 469.208 113.258C467.917 112.032 467.272 110.516 467.272 108.71V61.2903C467.337 59.4839 468.014 58 469.304 56.8387C470.595 55.6129 472.143 55 473.949 55ZM490.498 72.0323C494.82 69.129 500.659 66.1935 508.014 63.2258L523.885 56.4516C524.595 56.129 525.369 55.9355 526.208 55.871C528.014 55.7419 529.562 56.2903 530.853 57.5161C532.143 58.6774 532.788 60.1935 532.788 62.0645C532.788 64.1935 532.337 65.7742 531.433 66.8065C530.595 67.7742 529.498 68.5806 528.143 69.2258L514.595 74.3548C511.949 75.3871 509.433 76.4194 507.046 77.4516C504.724 78.4194 502.595 79.5484 500.659 80.8387C498.724 82 497.691 83.3226 497.562 84.8065C497.691 86.2258 498.724 87.5484 500.659 88.7742C502.595 90.0645 504.724 91.2258 507.046 92.2581C509.433 93.2258 511.949 94.2258 514.595 95.2581L529.691 100.774C531.046 101.419 532.143 102.258 532.982 103.29C533.885 104.258 534.337 105.806 534.337 107.935C534.337 109.806 533.691 111.355 532.401 112.581C531.111 113.742 529.562 114.258 527.756 114.129C526.917 114.065 526.143 113.871 525.433 113.548L508.014 106.387C500.659 103.419 494.788 100.484 490.401 97.5806C486.079 94.6129 483.885 90.3548 483.82 84.8065C483.885 79.2581 486.111 75 490.498 72.0323Z" fill="#c8102e"/>
<path d="M436.982 56.5483C440.272 56.6129 443.207 57.6451 445.788 59.6451C448.369 61.6451 450.433 64.0322 451.982 66.8064C453.595 69.5806 454.788 72.5161 455.562 75.6129C456.337 78.7096 456.724 81.8709 456.724 85.0967C456.724 89.3548 456.046 93.5483 454.691 97.6774C453.401 101.742 451.24 105.355 448.207 108.516C445.24 111.677 441.498 113.387 436.982 113.645H403.207C398.691 113.452 394.917 111.774 391.885 108.613C388.853 105.452 386.691 101.806 385.401 97.6774C384.175 93.5483 383.562 89.3548 383.562 85.0967C383.562 80.8387 384.207 76.6774 385.498 72.6129C386.788 68.4838 388.917 64.8387 391.885 61.6774C394.917 58.4516 398.691 56.7419 403.207 56.5483H405.046H435.143H436.982ZM433.691 100.677C436.143 100.548 438.175 99.6451 439.788 97.9677C441.466 96.2258 442.659 94.2258 443.369 91.9677C444.078 89.7096 444.433 87.4193 444.433 85.0967C444.433 82.7741 444.046 80.5161 443.272 78.3225C442.562 76.0645 441.401 74.0645 439.788 72.3225C438.175 70.5806 436.143 69.6451 433.691 69.5161H406.207C403.756 69.6451 401.724 70.5806 400.111 72.3225C398.498 74.0645 397.304 76.0645 396.53 78.3225C395.82 80.5161 395.466 82.7741 395.466 85.0967C395.466 87.4193 395.82 89.7096 396.53 91.9677C397.24 94.2258 398.401 96.2258 400.014 97.9677C401.691 99.6451 403.756 100.548 406.207 100.677H433.691Z" fill="#c8102e"/>
<path d="M319.401 108.516C319.014 112.387 316.885 114.484 313.014 114.806C311.208 114.806 309.627 114.226 308.272 113.064C306.982 111.839 306.337 110.323 306.337 108.516V62.8387C306.401 61.0322 307.078 59.5483 308.369 58.387C309.659 57.1612 311.208 56.5483 313.014 56.5483H353.659C359.337 56.7419 363.627 58 366.53 60.3225C369.433 62.5806 371.53 65.1612 372.82 68.0645C374.111 70.9677 374.756 73.9032 374.756 76.8709C374.756 79.9677 374.111 82.9677 372.82 85.8709C371.595 88.7741 369.498 91.387 366.53 93.7096C363.627 95.9677 359.917 97.0645 355.401 97H331.014C329.208 97 327.691 96.3548 326.466 95.0645C325.175 93.8387 324.53 92.3225 324.53 90.5161C324.53 88.7096 325.143 87.1935 326.369 85.9677C327.659 84.6774 329.208 84.0322 331.014 84.0322H355.982C357.208 84.0322 358.208 83.6451 358.982 82.8709C359.82 82.0322 360.433 81.0967 360.82 80.0645C361.208 78.9677 361.401 77.8709 361.401 76.7741C361.401 75.7419 361.208 74.7096 360.82 73.6774C360.433 72.5806 359.82 71.6451 358.982 70.8709C358.208 70.0322 357.208 69.5806 355.982 69.5161H321.917C320.24 69.5806 319.401 70.4193 319.401 72.0322V108.516Z" fill="#c8102e"/>
</svg>
