<svg width="2001" height="250" viewBox="0 0 2001 250" fill="none" xmlns="http://www.w3.org/2000/svg">
<path d="M99.2833 119.76C104.146 132.682 99.7081 146.312 89.3702 150.202C79.0323 154.093 66.3324 152.461 60.9105 134.201C56.9155 120.746 63.2935 106.592 73.6313 102.702C83.9692 98.8115 94.4202 106.838 99.2833 119.76Z" fill="black"/>
<path d="M150.406 119.76C145.543 132.682 149.981 146.312 160.319 150.202C170.657 154.093 183.357 152.461 188.779 134.201C192.774 120.746 186.396 106.592 176.058 102.702C165.72 98.8115 155.269 106.838 150.406 119.76Z" fill="black"/>
<path d="M125.259 9C174.904 9 217.355 46.017 234.566 90.6137C237.759 98.8897 232.017 107.455 223.211 108.527C217.124 109.268 211.368 105.393 209.124 99.6866C204.432 87.7547 197.376 76.298 188.36 66.373C171.153 47.4324 148.649 36 125.259 36C101.869 36 79.3651 47.4324 62.1584 66.373C53.142 76.2981 46.0856 87.7547 41.3931 99.6866C39.149 105.393 33.3931 109.268 27.3063 108.527C18.5004 107.456 12.7576 98.8908 15.9513 90.6147C33.1612 46.0175 75.6138 9 125.259 9Z" fill="black"/>
<path d="M227.708 126C235.5 126 241.652 132.06 241.582 139.853C241.57 141.154 241.561 141.998 241.561 142C242.779 195.935 190.29 241.054 126.305 241.983L124.792 241.997C60.1233 241.764 6.79479 196.36 8.02209 142C8.02206 141.998 8.01338 141.154 8.00158 139.853C7.931 132.06 14.0831 126 21.8756 126C28.9868 126 35.0009 132.117 35.0817 139.228C35.0931 140.234 35.1012 141.037 35.1012 141.5C35.1012 177.883 73.0283 214.761 124.792 214.997L126.003 214.984C177.145 214.184 214.482 177.599 214.482 141.5C214.482 141.037 214.49 140.234 214.502 139.228C214.582 132.117 220.596 126 227.708 126Z" fill="black"/>
<path d="M1997.54 91.1742C1997.54 94.362 1996.41 97.0375 1994.13 99.2006C1991.96 101.478 1989.29 102.616 1986.1 102.616H1917.79C1915.63 102.73 1913.81 103.242 1912.33 104.153C1910.96 104.95 1909.94 105.918 1909.25 107.056C1908.57 108.081 1908.23 109.162 1908.23 110.301C1908.23 111.439 1908.57 112.578 1909.25 113.716C1909.94 114.741 1910.96 115.709 1912.33 116.62C1913.81 117.417 1915.63 117.872 1917.79 117.986H1966.29C1974.26 118.213 1980.81 120.092 1985.93 123.621C1991.17 127.037 1994.87 131.022 1997.03 135.576C1999.31 140.016 2000.45 144.57 2000.45 149.237C2000.45 153.791 1999.31 158.345 1997.03 162.899C1994.75 167.34 1991.05 171.324 1985.93 174.854C1980.81 178.269 1974.26 179.977 1966.29 179.977H1965.27C1964.58 180.091 1963.9 180.148 1963.22 180.148H1898.67C1895.48 180.148 1892.75 179.066 1890.47 176.903C1888.31 174.626 1887.22 171.893 1887.22 168.706C1887.22 165.518 1888.36 162.842 1890.64 160.679C1892.8 158.402 1895.48 157.264 1898.67 157.264H1967.32C1969.48 157.378 1971.24 156.979 1972.61 156.068C1974.09 155.158 1975.17 154.133 1975.86 152.994C1976.54 151.742 1976.88 150.49 1976.88 149.237C1976.88 148.441 1976.54 147.359 1975.86 145.993C1975.17 144.513 1974.09 143.317 1972.61 142.406C1971.24 141.496 1969.48 140.983 1967.32 140.87H1918.82C1910.85 140.642 1904.24 138.82 1899.01 135.405C1893.88 131.989 1890.18 128.118 1887.91 123.792C1885.74 119.352 1884.66 114.855 1884.66 110.301C1884.66 105.861 1885.8 101.478 1888.08 97.1513C1890.35 92.7112 1894.05 88.7834 1899.18 85.3679C1904.3 81.9524 1910.85 80.1308 1918.82 79.9031H1919.84C1920.52 79.7893 1921.21 79.7324 1921.89 79.7324H1986.1C1989.29 79.7324 1991.96 80.8709 1994.13 83.1478C1996.41 85.311 1997.54 87.9864 1997.54 91.1742Z" fill="black"/>
<path d="M1803.2 102.616C1798.88 102.844 1795.23 104.495 1792.27 107.569C1789.43 110.642 1787.38 114.172 1786.13 118.157C1784.87 122.027 1784.25 126.012 1784.25 130.111C1784.25 134.209 1784.82 138.251 1785.95 142.236C1787.21 146.22 1789.31 149.75 1792.27 152.824C1795.23 155.784 1798.88 157.378 1803.2 157.605H1859.56C1866.73 158.288 1870.66 162.216 1871.34 169.389C1871.23 172.577 1870.03 175.252 1867.76 177.415C1865.48 179.464 1862.75 180.489 1859.56 180.489H1805.08H1797.23C1789.26 180.034 1782.71 177.017 1777.59 171.438C1772.46 165.746 1768.76 159.313 1766.49 152.141C1764.32 144.968 1763.24 137.625 1763.24 130.111C1763.24 124.532 1763.87 119.01 1765.12 113.546C1766.37 108.081 1768.31 102.901 1770.93 98.0052C1773.66 92.9958 1777.24 88.7265 1781.68 85.1971C1786.24 81.6678 1791.42 79.8462 1797.23 79.7324H1800.47H1859.56C1866.73 80.4155 1870.66 84.3433 1871.34 91.5158C1871.34 94.7036 1870.15 97.379 1867.76 99.5422C1865.48 101.591 1862.75 102.616 1859.56 102.616H1803.2Z" fill="black"/>
<path d="M1635.33 169.047C1635.33 165.859 1636.41 163.184 1638.58 161.021C1640.85 158.744 1643.59 157.605 1646.77 157.605H1679.56V102.616H1646.77C1643.59 102.616 1640.91 101.478 1638.75 99.2006C1636.47 97.0375 1635.33 94.362 1635.33 91.1742C1635.33 87.9864 1636.41 85.311 1638.58 83.1478C1640.85 80.8709 1643.59 79.7324 1646.77 79.7324H1735.23C1738.42 79.7324 1741.15 80.8139 1743.43 82.9771C1745.59 85.2541 1746.68 87.9864 1746.68 91.1742C1746.68 94.362 1745.54 97.0944 1743.26 99.3714C1741.1 101.535 1738.42 102.616 1735.23 102.616H1702.62V157.605H1735.23C1738.42 157.605 1741.15 158.687 1743.43 160.85C1745.59 163.127 1746.68 165.859 1746.68 169.047C1746.68 172.235 1745.54 174.967 1743.26 177.244C1741.1 179.408 1738.42 180.489 1735.23 180.489H1646.77C1643.59 180.489 1640.91 179.351 1638.75 177.074C1636.47 174.91 1635.33 172.235 1635.33 169.047Z" fill="black"/>
<path d="M1498.71 91.1742C1498.71 87.9864 1499.79 85.311 1501.96 83.1478C1504.23 80.8709 1506.97 79.7324 1510.15 79.7324H1609.54C1612.73 79.7324 1615.46 80.8139 1617.74 82.9771C1619.9 85.2541 1620.99 87.9864 1620.99 91.1742C1620.99 94.362 1619.85 97.0944 1617.57 99.3714C1615.41 101.535 1612.73 102.616 1609.54 102.616H1571.46V171.78C1570.78 178.611 1567.02 182.311 1560.19 182.88C1557 182.88 1554.21 181.855 1551.82 179.806C1549.55 177.643 1548.41 174.967 1548.41 171.78V102.616H1510.15C1506.97 102.616 1504.29 101.478 1502.13 99.2006C1499.85 97.0375 1498.71 94.362 1498.71 91.1742Z" fill="black"/>
<path d="M1448.5 79.7324C1454.31 79.8462 1459.49 81.6678 1464.04 85.1971C1468.6 88.7265 1472.24 92.9389 1474.97 97.8344C1477.82 102.73 1479.93 107.91 1481.29 113.375C1482.66 118.84 1483.34 124.418 1483.34 130.111C1483.34 137.625 1482.15 145.025 1479.76 152.311C1477.48 159.484 1473.67 165.859 1468.31 171.438C1463.08 177.017 1456.47 180.034 1448.5 180.489H1388.9C1380.93 180.148 1374.27 177.187 1368.92 171.609C1363.57 166.03 1359.76 159.598 1357.48 152.311C1355.32 145.025 1354.24 137.625 1354.24 130.111C1354.24 122.597 1355.38 115.253 1357.65 108.081C1359.93 100.795 1363.69 94.362 1368.92 88.7834C1374.27 83.0909 1380.93 80.0739 1388.9 79.7324H1392.15H1445.26H1448.5ZM1442.7 157.605C1447.02 157.378 1450.61 155.784 1453.46 152.824C1456.42 149.75 1458.52 146.22 1459.78 142.236C1461.03 138.251 1461.65 134.209 1461.65 130.111C1461.65 126.012 1460.97 122.027 1459.6 118.157C1458.35 114.172 1456.3 110.642 1453.46 107.569C1450.61 104.495 1447.02 102.844 1442.7 102.616H1394.2C1389.87 102.844 1386.29 104.495 1383.44 107.569C1380.59 110.642 1378.49 114.172 1377.12 118.157C1375.87 122.027 1375.24 126.012 1375.24 130.111C1375.24 134.209 1375.87 138.251 1377.12 142.236C1378.37 146.22 1380.42 149.75 1383.27 152.824C1386.23 155.784 1389.87 157.378 1394.2 157.605H1442.7Z" fill="black"/>
<path d="M1335.96 135.405C1338.13 139.959 1339.21 144.57 1339.21 149.237C1339.21 153.791 1338.07 158.345 1335.79 162.899C1333.52 167.34 1329.82 171.324 1324.69 174.854C1319.57 178.269 1313.02 179.977 1305.05 179.977H1304.03C1303.35 180.091 1302.66 180.148 1301.98 180.148H1233.33C1230.26 180.034 1227.64 178.952 1225.47 176.903C1223.42 174.74 1222.34 172.121 1222.23 169.047V90.8327C1222.34 87.7587 1223.42 85.1971 1225.47 83.1478C1227.64 80.9847 1230.26 79.8462 1233.33 79.7324H1292.08C1292.76 79.7324 1293.44 79.7893 1294.12 79.9031H1295.15C1303.12 80.1308 1309.67 81.9524 1314.79 85.3679C1319.91 88.7834 1323.61 92.7112 1325.89 97.1513C1328.17 101.478 1329.3 105.861 1329.3 110.301C1329.3 114.855 1328.22 119.295 1326.06 123.621C1325.95 123.849 1325.83 124.02 1325.72 124.134C1330.39 127.435 1333.8 131.192 1335.96 135.405ZM1306.08 157.264C1308.24 157.378 1310.01 156.979 1311.37 156.068C1312.85 155.158 1313.93 154.133 1314.62 152.994C1315.3 151.742 1315.64 150.49 1315.64 149.237C1315.64 148.441 1315.3 147.359 1314.62 145.993C1313.93 144.513 1312.85 143.317 1311.37 142.406C1310.01 141.496 1308.24 140.983 1306.08 140.87H1295.15H1245.28V152.653C1245.28 155.727 1246.88 157.264 1250.07 157.264H1251.43H1306.08ZM1301.64 116.449C1303.01 115.652 1304.03 114.741 1304.71 113.716C1305.4 112.578 1305.74 111.439 1305.74 110.301C1305.74 109.162 1305.4 108.081 1304.71 107.056C1304.03 105.918 1302.95 104.95 1301.47 104.153C1300.1 103.242 1298.34 102.73 1296.17 102.616H1250.07C1246.88 102.616 1245.28 104.153 1245.28 107.227V117.986H1296.17C1298.34 117.872 1300.16 117.36 1301.64 116.449Z" fill="black"/>
<path d="M1168.61 79.7324C1174.41 79.8462 1179.59 81.6678 1184.15 85.1971C1188.7 88.7265 1192.34 92.9389 1195.08 97.8344C1197.92 102.73 1200.03 107.91 1201.39 113.375C1202.76 118.84 1203.44 124.418 1203.44 130.111C1203.44 137.625 1202.25 145.025 1199.86 152.311C1197.58 159.484 1193.77 165.859 1188.42 171.438C1183.18 177.017 1176.58 180.034 1168.61 180.489H1109.01C1101.04 180.148 1094.38 177.187 1089.02 171.609C1083.67 166.03 1079.86 159.598 1077.58 152.311C1075.42 145.025 1074.34 137.625 1074.34 130.111C1074.34 122.597 1075.48 115.253 1077.75 108.081C1080.03 100.795 1083.79 94.362 1089.02 88.7834C1094.38 83.0909 1101.04 80.0739 1109.01 79.7324H1112.25H1165.36H1168.61ZM1162.8 157.605C1167.13 157.378 1170.71 155.784 1173.56 152.824C1176.52 149.75 1178.62 146.22 1179.88 142.236C1181.13 138.251 1181.76 134.209 1181.76 130.111C1181.76 126.012 1181.07 122.027 1179.71 118.157C1178.45 114.172 1176.4 110.642 1173.56 107.569C1170.71 104.495 1167.13 102.844 1162.8 102.616H1114.3C1109.97 102.844 1106.39 104.495 1103.54 107.569C1100.69 110.642 1098.59 114.172 1097.22 118.157C1095.97 122.027 1095.34 126.012 1095.34 130.111C1095.34 134.209 1095.97 138.251 1097.22 142.236C1098.47 146.22 1100.52 149.75 1103.37 152.824C1106.33 155.784 1109.97 157.378 1114.3 157.605H1162.8Z" fill="black"/>
<path d="M960.944 171.78C960.261 178.611 956.504 182.311 949.673 182.88C946.485 182.88 943.696 181.855 941.305 179.806C939.028 177.643 937.89 174.967 937.89 171.78V90.8327C938.004 87.6449 939.199 85.0264 941.476 82.9771C943.753 80.8139 946.485 79.7324 949.673 79.7324H958.041H979.046H1021.23C1021.91 79.7324 1022.59 79.7893 1023.28 79.9031H1024.3C1032.27 80.1308 1038.82 81.9524 1043.94 85.3679C1049.06 88.7834 1052.76 92.7112 1055.04 97.1513C1057.32 101.478 1058.46 105.861 1058.46 110.301C1058.46 114.855 1057.32 119.352 1055.04 123.792C1052.88 128.118 1049.18 131.989 1043.94 135.405C1038.82 138.82 1032.27 140.642 1024.3 140.87H994.245C995.156 146.562 997.035 150.774 999.881 153.507C1002.61 156.239 1006.09 157.605 1010.3 157.605H1047.19C1050.37 157.719 1052.99 158.915 1055.04 161.192C1057.2 163.469 1058.29 166.201 1058.29 169.389C1058.17 172.463 1057.03 175.081 1054.87 177.244C1052.82 179.294 1050.26 180.375 1047.19 180.489H1007.22C998.799 180.603 991.171 177.301 984.34 170.584C977.509 163.867 973.354 155.898 971.874 146.676C969.825 136.429 968.8 130.68 968.8 129.428C968.8 126.24 969.881 123.564 972.045 121.401C974.322 119.124 977.054 117.986 980.242 117.986H1025.33C1027.49 117.872 1029.25 117.417 1030.62 116.62C1032.1 115.709 1033.18 114.741 1033.86 113.716C1034.55 112.578 1034.89 111.439 1034.89 110.301C1034.89 109.162 1034.55 108.081 1033.86 107.056C1033.18 105.918 1032.1 104.95 1030.62 104.153C1029.25 103.242 1027.49 102.73 1025.33 102.616H979.046H965.384C962.424 102.73 960.944 104.21 960.944 107.056V171.78Z" fill="black"/>
<path d="M756.357 79.7324H764.212H822.276C825.463 79.8462 828.082 81.0416 830.131 83.3186C832.294 85.5956 833.376 88.328 833.376 91.5158C832.807 98.3467 829.107 102.047 822.276 102.616H762.163C757.837 102.844 754.251 104.495 751.404 107.569C748.558 110.642 746.452 114.172 745.086 118.157C743.833 122.027 743.207 126.012 743.207 130.111C743.207 134.209 743.833 138.251 745.086 142.236C746.452 146.107 748.558 149.579 751.404 152.653C754.251 155.727 757.837 157.378 762.163 157.605H822.276C825.463 157.719 828.082 158.915 830.131 161.192C832.294 163.469 833.376 166.201 833.376 169.389C833.262 172.463 832.124 175.081 829.96 177.244C827.911 179.294 825.35 180.375 822.276 180.489H759.601H756.357C748.387 180.034 741.784 177.017 736.547 171.438C731.424 165.746 727.724 159.313 725.447 152.141C723.284 144.968 722.202 137.625 722.202 130.111C722.202 122.597 723.34 115.253 725.617 108.081C727.894 100.908 731.595 94.5328 736.718 88.9542C741.841 83.2617 748.387 80.1878 756.357 79.7324ZM833.034 129.428C833.034 132.615 831.896 135.291 829.619 137.454C827.456 139.731 824.78 140.87 821.593 140.87H770.019C766.831 140.87 764.099 139.788 761.822 137.625C759.658 135.348 758.577 132.615 758.577 129.428C758.577 126.24 759.658 123.507 761.822 121.23C764.099 119.067 766.831 117.986 770.019 117.986H821.593C824.78 117.986 827.456 119.124 829.619 121.401C831.896 123.564 833.034 126.24 833.034 129.428Z" fill="black"/>
<path d="M600.782 77C603.855 77.1138 606.474 78.2523 608.637 80.4155C610.8 82.4648 611.939 85.0264 612.053 88.1003V171.78C611.37 178.611 607.612 182.311 600.782 182.88C597.594 182.88 594.804 181.855 592.414 179.806C590.137 177.643 588.998 174.967 588.998 171.78V88.1003C589.112 84.9125 590.307 82.294 592.584 80.2447C594.861 78.0816 597.594 77 600.782 77ZM629.984 107.056C637.612 101.933 647.915 96.7529 660.894 91.5158L688.901 79.5616C690.153 78.9924 691.52 78.6508 693 78.537C696.187 78.3093 698.92 79.277 701.197 81.4401C703.474 83.4894 704.612 86.1649 704.612 89.4665C704.612 93.2235 703.815 96.0129 702.221 97.8345C700.741 99.5422 698.806 100.965 696.415 102.104L672.507 111.155C667.839 112.976 663.399 114.798 659.186 116.62C655.088 118.327 651.331 120.32 647.915 122.597C644.5 124.646 642.678 126.98 642.45 129.598C642.678 132.103 644.5 134.437 647.915 136.6C651.331 138.877 655.088 140.926 659.186 142.748C663.399 144.456 667.839 146.22 672.507 148.042L699.147 157.776C701.538 158.915 703.474 160.395 704.954 162.216C706.548 163.924 707.345 166.656 707.345 170.413C707.345 173.715 706.206 176.447 703.929 178.611C701.652 180.66 698.92 181.571 695.732 181.343C694.252 181.229 692.886 180.888 691.633 180.318L660.894 167.681C647.915 162.444 637.555 157.264 629.813 152.141C622.185 146.904 618.314 139.39 618.2 129.598C618.314 119.807 622.242 112.293 629.984 107.056Z" fill="black"/>
<path d="M535.546 79.7324C541.352 79.8462 546.532 81.6678 551.086 85.1971C555.64 88.7265 559.283 92.9389 562.016 97.8344C564.862 102.73 566.968 107.91 568.334 113.375C569.701 118.84 570.384 124.418 570.384 130.111C570.384 137.625 569.188 145.025 566.797 152.311C564.52 159.484 560.706 165.859 555.356 171.438C550.118 177.017 543.515 180.034 535.546 180.489H475.946C467.976 180.148 461.316 177.187 455.965 171.609C450.614 166.03 446.8 159.598 444.523 152.311C442.36 145.025 441.278 137.625 441.278 130.111C441.278 122.597 442.417 115.253 444.694 108.081C446.971 100.795 450.728 94.362 455.965 88.7834C461.316 83.0909 467.976 80.0739 475.946 79.7324H479.19H532.301H535.546ZM529.739 157.605C534.066 157.378 537.652 155.784 540.498 152.824C543.458 149.75 545.564 146.22 546.817 142.236C548.069 138.251 548.695 134.209 548.695 130.111C548.695 126.012 548.012 122.027 546.646 118.157C545.394 114.172 543.344 110.642 540.498 107.569C537.652 104.495 534.066 102.844 529.739 102.616H481.24C476.913 102.844 473.327 104.495 470.481 107.569C467.635 110.642 465.528 114.172 464.162 118.157C462.91 122.027 462.284 126.012 462.284 130.111C462.284 134.209 462.91 138.251 464.162 142.236C465.414 146.22 467.464 149.75 470.31 152.824C473.27 155.784 476.913 157.378 481.24 157.605H529.739Z" fill="black"/>
<path d="M328.055 171.438C327.372 178.269 323.615 181.969 316.784 182.538C313.596 182.538 310.807 181.514 308.416 179.464C306.139 177.301 305.001 174.626 305.001 171.438V90.8327C305.114 87.6449 306.31 85.0264 308.587 82.9771C310.864 80.8139 313.596 79.7324 316.784 79.7324H388.509C398.528 80.0739 406.099 82.294 411.222 86.3926C416.345 90.3773 420.045 94.9313 422.322 100.054C424.599 105.178 425.738 110.358 425.738 115.595C425.738 121.06 424.599 126.354 422.322 131.477C420.159 136.6 416.459 141.211 411.222 145.31C406.099 149.294 399.553 151.23 391.583 151.116H348.548C345.36 151.116 342.685 149.977 340.522 147.7C338.245 145.537 337.106 142.862 337.106 139.674C337.106 136.486 338.188 133.811 340.351 131.648C342.628 129.371 345.36 128.232 348.548 128.232H392.608C394.771 128.232 396.536 127.549 397.902 126.183C399.382 124.703 400.463 123.052 401.146 121.23C401.83 119.295 402.171 117.36 402.171 115.424C402.171 113.603 401.83 111.781 401.146 109.959C400.463 108.024 399.382 106.373 397.902 105.007C396.536 103.527 394.771 102.73 392.608 102.616H332.495C329.535 102.73 328.055 104.21 328.055 107.056V171.438Z" fill="black"/>
</svg>
